<svg width="15" height="11" viewBox="0 0 15 11" fill="none" xmlns="http://www.w3.org/2000/svg">
<path d="M1.03192 5.81734C0.989442 5.68968 0.989442 5.5517 1.03192 5.42404C1.88561 2.85557 4.30882 1.00293 7.16472 1.00293C10.0194 1.00293 12.4414 2.85373 13.2969 5.42096C13.34 5.54837 13.34 5.68624 13.2969 5.81426C12.4438 8.38273 10.0206 10.2354 7.16472 10.2354C4.31005 10.2354 1.88746 8.38458 1.03192 5.81734Z" stroke="#888888" stroke-opacity="0.6" stroke-width="1.5" stroke-linecap="round" stroke-linejoin="round"/>
<path d="M9.01115 5.61919C9.01115 6.10891 8.81661 6.57858 8.47033 6.92486C8.12405 7.27114 7.65438 7.46568 7.16467 7.46568C6.67495 7.46568 6.20528 7.27114 5.859 6.92486C5.51272 6.57858 5.31818 6.10891 5.31818 5.61919C5.31818 5.12947 5.51272 4.65981 5.859 4.31353C6.20528 3.96725 6.67495 3.77271 7.16467 3.77271C7.65438 3.77271 8.12405 3.96725 8.47033 4.31353C8.81661 4.65981 9.01115 5.12947 9.01115 5.61919Z" stroke="#888888" stroke-opacity="0.6" stroke-width="1.5" stroke-linecap="round" stroke-linejoin="round"/>
</svg>
